<svg width="31" height="31" viewBox="0 0 31 31" fill="none" xmlns="http://www.w3.org/2000/svg">
<path d="M31 24.3569C31 25.369 30.1796 26.1895 29.1675 26.1895H1.83245C0.82041 26.1895 0 25.3689 0 24.3569V6.64302C0 5.63098 0.82041 4.81051 1.83245 4.81051H29.1675C30.1796 4.81051 30.9999 5.63098 30.9999 6.64302L31 24.3569Z" fill="#0099DF"/>
<path opacity="0.15" d="M1.30279 24.3569V6.64302C1.30279 5.63098 2.12332 4.81051 3.13536 4.81051H1.83239C0.82041 4.81051 0 5.63104 0 6.64302V24.3569C0 25.369 0.82041 26.1895 1.83245 26.1895H3.13542C2.12338 26.1895 1.30279 25.3689 1.30279 24.3569Z" fill="#202121"/>
<path d="M20.2643 14.2029C20.2643 13.1114 20.767 12.1373 21.5537 11.4995C20.9559 11.0149 20.1941 10.7242 19.3645 10.7242C17.4433 10.7242 15.8861 12.2816 15.8861 14.2028C15.8861 16.1241 17.4433 17.6813 19.3645 17.6813C20.1942 17.6813 20.9559 17.3908 21.5537 16.906C20.767 16.2683 20.2643 15.2944 20.2643 14.2029Z" fill="#EA001B"/>
<path d="M23.7428 10.7242C22.9132 10.7242 22.1517 11.0149 21.5537 11.4996C22.3405 12.1374 22.8432 13.1114 22.8432 14.203C22.8432 15.2944 22.3405 16.2684 21.5537 16.9061C22.1517 17.3909 22.9133 17.6814 23.7428 17.6814C25.6642 17.6814 27.2214 16.1242 27.2214 14.203C27.2214 12.2816 25.6641 10.7242 23.7428 10.7242Z" fill="#F79F1A"/>
<path d="M22.8431 14.2029C22.8431 13.1114 22.3403 12.1373 21.5536 11.4995C20.767 12.1373 20.2642 13.1114 20.2642 14.2029C20.2642 15.2944 20.7669 16.2683 21.5536 16.906C22.3403 16.2683 22.8431 15.2944 22.8431 14.2029Z" fill="#FF5F01"/>
<path d="M10.0413 15.8155C10.0413 16.0599 9.84294 16.258 9.59882 16.258H4.10825C3.86382 16.258 3.66577 16.0599 3.66577 15.8155V11.5368C3.66577 11.2924 3.86388 11.0944 4.10825 11.0944H9.59882C9.84301 11.0944 10.0413 11.2924 10.0413 11.5368V15.8155Z" fill="#FFC715"/>
<path d="M10.1019 20.0474H3.66572C3.38654 20.0474 3.16028 19.8211 3.16028 19.542C3.16028 19.2628 3.38648 19.0365 3.66572 19.0365H10.1019C10.381 19.0365 10.6073 19.2627 10.6073 19.542C10.6073 19.8211 10.381 20.0474 10.1019 20.0474Z" fill="#34495E"/>
<path d="M10.1019 22.1553H3.66572C3.38654 22.1553 3.16028 21.929 3.16028 21.6498C3.16028 21.3706 3.38648 21.1444 3.66572 21.1444H10.1019C10.381 21.1444 10.6073 21.3706 10.6073 21.6498C10.6073 21.929 10.381 22.1553 10.1019 22.1553Z" fill="#34495E"/>
<path d="M5.38215 16.258H6.39304V15.7526V11.5998V11.0944H5.38215V11.5998V12.31H4.17109H3.66565V13.3209H4.17109H5.38215V14.0315H4.17109H3.66565V15.0423H4.17109H5.38215V15.7526V16.258Z" fill="#FFA617"/>
<path d="M9.53583 13.3209H10.0413V12.31H9.53583H8.57193V11.5998V11.0944H7.56104V11.5998V14.5369C7.56104 14.816 7.78724 15.0423 8.06648 15.0423H9.53583H10.0413V14.0314H9.53583H8.57193V13.3209H9.53583Z" fill="#FFA617"/>
<path opacity="0.15" d="M4.59674 15.8155V11.5368C4.59674 11.2924 4.79479 11.0944 5.03922 11.0944H4.10825C3.86382 11.0944 3.66577 11.2924 3.66577 11.5368V15.8155C3.66577 16.0599 3.86388 16.258 4.10825 16.258H5.03928C4.79479 16.258 4.59674 16.0599 4.59674 15.8155Z" fill="#202121"/>
</svg>
