<svg width="124" height="124" viewBox="0 0 124 124" fill="none" xmlns="http://www.w3.org/2000/svg">
<path d="M20.9466 43.8359H6.70593V51.1016H20.9466V43.8359Z" fill="white"/>
<path d="M20.9466 72.8984H6.70593V80.1641H20.9466V72.8984Z" fill="white"/>
<path d="M20.9468 58.3672H0V65.6328H20.9468V58.3672Z" fill="white"/>
<path d="M76.1059 14.1062C49.6973 14.1062 28.2122 35.5914 28.2122 62C28.2122 88.4086 49.6971 109.894 76.1059 109.894C102.515 109.894 124 88.4086 124 62C124 35.5914 102.515 14.1062 76.1059 14.1062ZM76.1059 102.628C53.7036 102.628 35.4778 84.4023 35.4778 62C35.4778 39.5976 53.7036 21.3718 76.1059 21.3718C98.5085 21.3718 116.734 39.5976 116.734 62C116.734 84.4023 98.5085 102.628 76.1059 102.628Z" fill="white"/>
<path d="M78.4518 63.8053V40.338H71.1862V67.6461L89.9092 80.4053L94.001 74.4012L78.4518 63.8053Z" fill="white"/>
</svg>
