<svg width="40" height="40" viewBox="0 0 40 40" fill="none" xmlns="http://www.w3.org/2000/svg">
<path d="M0 20C0 31.0281 8.97189 40 20 40C31.0281 40 40 31.0281 40 20C40 8.97189 31.0281 0 20 0C8.97189 0 0 8.97189 0 20ZM36.7568 20C36.7568 29.2396 29.2396 36.7568 20 36.7568C15.963 36.7568 12.2549 35.3213 9.35892 32.9345L32.9345 9.3587C35.3213 12.2549 36.7568 15.9628 36.7568 20ZM20 3.24324C24.037 3.24324 27.7451 4.6787 30.6411 7.06551L7.06551 30.6413C4.6787 27.7451 3.24324 24.0372 3.24324 20C3.24324 10.7604 10.7604 3.24324 20 3.24324Z" fill="black" fill-opacity="0.05"/>
</svg>
