<svg width="18" height="18" viewBox="0 0 18 18" fill="none" xmlns="http://www.w3.org/2000/svg">
<path d="M14.625 8.47266H9.52734V3.375C9.52734 3.08377 9.29123 2.84766 9 2.84766C8.70877 2.84766 8.47266 3.08377 8.47266 3.375V8.47266H3.375C3.08377 8.47266 2.84766 8.70877 2.84766 9C2.84766 9.29123 3.08377 9.52734 3.375 9.52734H8.47266V14.625C8.47266 14.9162 8.70877 15.1523 9 15.1523C9.29123 15.1523 9.52734 14.9162 9.52734 14.625V9.52734H14.625C14.9162 9.52734 15.1523 9.29123 15.1523 9C15.1523 8.70877 14.9162 8.47266 14.625 8.47266Z" fill="white"/>
<path d="M15.3633 0H2.63672C1.18283 0 0 1.18283 0 2.63672V15.3633C0 16.8172 1.18283 18 2.63672 18H15.3633C16.8172 18 18 16.8172 18 15.3633V2.63672C18 1.18283 16.8172 0 15.3633 0ZM16.9453 15.3633C16.9453 16.2356 16.2356 16.9453 15.3633 16.9453H2.63672C1.76439 16.9453 1.05469 16.2356 1.05469 15.3633V2.63672C1.05469 1.76439 1.76439 1.05469 2.63672 1.05469H15.3633C16.2356 1.05469 16.9453 1.76439 16.9453 2.63672V15.3633Z" fill="white"/>
</svg>
