<svg width="124" height="124" viewBox="0 0 124 124" fill="none" xmlns="http://www.w3.org/2000/svg">
<g clip-path="url(#clip0)">
<path d="M123.665 72.995C123.392 72.5293 122.973 72.1667 122.473 71.9643L113.58 68.3239L122.791 62.9C123.955 62.2184 124.347 60.7219 123.665 59.5574C123.392 59.0917 122.973 58.7292 122.473 58.5267L113.58 54.8863L122.791 49.4625C123.595 48.9784 124.051 48.0762 123.963 47.1414C123.893 46.2182 123.306 45.4138 122.449 45.0647L87.4376 30.7232L70.1887 23.3936C69.9086 23.2827 69.6102 23.225 69.3091 23.2226L41.2124 11.7884C40.5225 11.5019 39.7395 11.5471 39.0868 11.9106L1.43721 33.0686C0.232108 33.6755 -0.252866 35.1444 0.353962 36.3495C0.630654 36.8993 1.10494 37.3244 1.68153 37.5397L10.7702 41.3022L1.43721 46.5062C0.262953 47.1707 -0.150252 48.6617 0.514296 49.836C0.778467 50.3026 1.18831 50.6691 1.68153 50.8795L10.7702 54.642L1.48608 59.846C0.244629 60.375 -0.332575 61.8104 0.196376 63.0515C0.472151 63.6986 1.01332 64.1952 1.68153 64.4148L10.7702 68.1529L1.48608 73.3569C0.311817 74.0214 -0.101388 75.5124 0.56316 76.6867C0.827331 77.1533 1.23718 77.5198 1.7304 77.7302L33.3209 91.1433C33.4363 91.2273 33.5591 91.3009 33.6874 91.3632L50.9607 98.6928L82.7223 112.204C83.4369 112.507 84.2532 112.453 84.9211 112.057L122.791 89.7751C123.955 89.0935 124.347 87.597 123.665 86.4326C123.392 85.9668 122.973 85.6043 122.473 85.4018L113.58 81.7615L122.791 76.3376C123.955 75.6562 124.346 74.1595 123.665 72.995ZM116.047 61.1412L83.4796 80.3203L54.3568 67.9577V59.8219L82.6978 71.8668C82.9993 71.9951 83.3233 72.0617 83.6507 72.0623C84.0892 72.0623 84.5195 71.9441 84.8967 71.7203L108.278 57.9651L116.047 61.1412ZM116.145 47.6792L83.4796 66.8583L57.0199 55.6196L86.8268 35.7076L116.145 47.6792ZM32.1237 85.3777L8.15599 75.1896L16.3896 70.5719L32.1482 77.2663L32.1237 85.3777ZM32.1237 71.9401L8.15599 61.752L16.3896 57.0855L32.1482 63.7799L32.1237 71.9401ZM32.1237 58.5026L8.15599 48.3389L16.3896 43.7213L32.1482 50.4156L32.1237 58.5026ZM8.15599 34.9013L40.455 16.7484L63.8852 26.3501L34.3715 46.0423L8.15599 34.9013ZM50.5454 54.1048C49.872 54.5599 49.4692 55.32 49.4704 56.1327V92.7806L37.0345 87.5033V50.1469L69.4068 28.5735L81.4518 33.4598L50.5454 54.1048ZM116.047 88.0163L83.4796 107.171L54.3568 94.8084V86.697L82.6978 98.6198C83.4125 98.9231 84.2288 98.8687 84.8967 98.4732L108.278 84.718L116.047 88.0163ZM83.4796 93.7334L54.3568 81.3709V73.2595L82.7223 85.3044C83.4369 85.6077 84.2532 85.5533 84.9211 85.1578L108.302 71.4026L116.047 74.5788L83.4796 93.7334Z" fill="white"/>
</g>
<defs>
<clipPath id="clip0">
<rect width="124" height="124" fill="white"/>
</clipPath>
</defs>
</svg>
