<svg width="120" height="118" viewBox="0 0 120 118" fill="none" xmlns="http://www.w3.org/2000/svg">
<g clip-path="url(#clip0)">
<path d="M103.932 22.6321L61.485 0.507348C60.172 -0.177896 58.5989 -0.167808 57.2946 0.531878L16.0221 22.6566C14.6107 23.4138 13.7337 24.8618 13.7337 26.4366V57.7563C13.7337 82.3638 28.6638 104.666 51.7762 114.577L57.5044 117.02C58.0655 117.26 58.6662 117.379 59.2655 117.379C59.8603 117.379 60.4551 117.261 61.0118 117.025L67.4611 114.301C91.0348 104.543 106.266 82.1238 106.266 57.1801V26.4352C106.266 24.8432 105.369 23.3808 103.932 22.6321ZM97.4536 57.1801C97.4536 78.66 84.3286 97.9663 64.0127 106.368C64.0024 106.372 63.9921 106.377 63.9818 106.381L59.2744 108.369L55.3071 106.677C35.4054 98.143 22.5462 78.9401 22.5462 57.7549V28.9882L59.4431 9.21079L97.4533 29.0228V57.1801H97.4536Z" fill="white"/>
<path d="M82.807 47.1349C81.2721 45.2887 78.4948 45.0085 76.6073 46.5113L53.947 64.5431L45.578 54.9575C43.999 53.1473 41.2158 52.9332 39.3666 54.4791C37.5159 56.0236 37.297 58.7446 38.8774 60.5548L50.04 73.3399C50.9109 74.3383 52.1477 74.8514 53.3932 74.8514C54.3715 74.8514 55.3554 74.5352 56.1705 73.8844L82.1693 53.1975C84.0586 51.6964 84.3433 48.9811 82.807 47.1349Z" fill="white"/>
</g>
<defs>
<clipPath id="clip0">
<rect width="120" height="117.379" fill="white"/>
</clipPath>
</defs>
</svg>
