<svg width="56" height="56" viewBox="0 0 56 56" fill="none" xmlns="http://www.w3.org/2000/svg">
<path d="M28.204 33.5453L51.1686 8.33931L54.2002 11.1015L28.4145 39.4042L14.3574 26.0411L17.1836 23.0684L28.204 33.5453ZM52.6077 18.8726L49.4094 22.3942C49.8737 24.1771 50.1211 26.0465 50.1211 27.9727C50.1211 40.1851 40.1851 50.1211 27.9727 50.1211C15.7603 50.1211 5.82422 40.1851 5.82422 27.9727C5.82422 15.7603 15.7603 5.82422 27.9727 5.82422C33.6302 5.82422 38.7982 7.95767 42.7175 11.4607L45.4825 8.41621C40.6622 4.09003 34.4996 1.72266 27.9727 1.72266C20.9612 1.72266 14.3689 4.45308 9.41116 9.41116C4.45308 14.3689 1.72266 20.9612 1.72266 27.9727C1.72266 34.9841 4.45308 41.5764 9.41116 46.5341C14.3689 51.4922 20.9612 54.2227 27.9727 54.2227C34.9841 54.2227 41.5764 51.4922 46.5341 46.5341C51.4922 41.5764 54.2227 34.9841 54.2227 27.9727C54.2227 24.817 53.668 21.7473 52.6077 18.8726Z" fill="#5CCA7B"/>
</svg>
