<svg width="40" height="24" viewBox="0 0 40 24" fill="none" xmlns="http://www.w3.org/2000/svg">
<path d="M33.1917 13.7133C32.545 12.8966 32.73 12.5333 33.1917 11.8033C33.2 11.7949 38.5383 4.41825 39.0883 1.91659L39.0917 1.91492C39.365 1.00325 39.0917 0.333252 37.77 0.333252H33.3967C32.2833 0.333252 31.77 0.908252 31.495 1.55159C31.495 1.55159 29.2683 6.88159 26.1183 10.3366C25.1017 11.3349 24.6317 11.6549 24.0767 11.6549C23.8033 11.6549 23.3783 11.3349 23.3783 10.4233V1.91492C23.3783 0.821585 23.0667 0.333252 22.145 0.333252H15.2683C14.57 0.333252 14.155 0.843252 14.155 1.31825C14.155 2.35492 15.73 2.59325 15.8933 5.50992V11.8383C15.8933 13.2249 15.6417 13.4799 15.0833 13.4799C13.5967 13.4799 9.98833 8.12825 7.85 2.00325C7.41833 0.814918 6.99667 0.334918 5.875 0.334918H1.5C0.251667 0.334918 0 0.909918 0 1.55325C0 2.68992 1.48667 8.34159 6.91333 15.8083C10.53 20.9049 15.6233 23.6666 20.2567 23.6666C23.0417 23.6666 23.3817 23.0533 23.3817 21.9983C23.3817 17.1283 23.13 16.6683 24.525 16.6683C25.1717 16.6683 26.285 16.9883 28.885 19.4466C31.8567 22.3616 32.345 23.6666 34.0083 23.6666H38.3817C39.6283 23.6666 40.26 23.0533 39.8967 21.8433C39.065 19.2983 33.445 14.0633 33.1917 13.7133Z" fill="white"/>
</svg>
