<svg width="40" height="30" viewBox="0 0 40 30" fill="none" xmlns="http://www.w3.org/2000/svg">
<path d="M39.115 4.88161L39.165 5.20828C38.6817 3.49328 37.3767 2.16994 35.7183 1.68828L35.6833 1.67994C32.565 0.833275 20.0167 0.833275 20.0167 0.833275C20.0167 0.833275 7.49999 0.816608 4.34999 1.67994C2.65999 2.16994 1.35332 3.49328 0.87832 5.17328L0.869987 5.20828C-0.295013 11.2933 -0.303347 18.6049 0.921653 25.1199L0.869987 24.7899C1.35332 26.5049 2.65832 27.8283 4.31665 28.3099L4.35165 28.3183C7.46665 29.1666 20.0183 29.1666 20.0183 29.1666C20.0183 29.1666 32.5333 29.1666 35.685 28.3183C37.3767 27.8283 38.6833 26.5049 39.1583 24.8249L39.1667 24.7899C39.6967 21.9599 40 18.7033 40 15.3766C40 15.2549 40 15.1316 39.9983 15.0083C40 14.8949 40 14.7599 40 14.6249C40 11.2966 39.6967 8.03994 39.115 4.88161ZM16.0133 21.0849V8.92994L26.4567 15.0166L16.0133 21.0849Z" fill="white"/>
</svg>
